Coordinates
version=1
nRows=10
nColumns=27
inDegrees=yes

Units are S.I. units (second, meters, Newtons, ...)
If the header above contains a line with 'inDegrees', this indicates whether rotational values are in degrees (yes) or radians (no).

endheader
time	pelvis_rotation	pelvis_tilt	pelvis_list	pelvis_tx	pelvis_ty	pelvis_tz	hip_flexion_r	hip_adduction_r	hip_rotation_r	knee_angle_r	knee_rotation_r	knee_adduction_r	knee_angle_r_beta	ankle_angle_r	subtalar_angle_r	mtp_angle_r	hip_flexion_l	hip_adduction_l	hip_rotation_l	knee_angle_l	knee_rotation_l	knee_adduction_l	knee_angle_l_beta	ankle_angle_l	subtalar_angle_l	mtp_angle_l
      6.13500000	      6.66946478	    -37.73566536	      9.21246404	     -0.08837548	      0.64631052	     -1.16175482	    106.76595183	    -40.82889828	     -2.25615922	     75.64785427	     -9.19453790	      9.65472447	      1.32030413	      6.85952567	      6.16646637	      0.00000000	     96.93715288	    -28.58364833	    -13.60026774	     67.44509697	     -7.79396988	     -9.70606000	      1.17713901	      2.43311958	     16.02900410	      0.00000000
      6.14000000	      6.65522223	    -37.64648075	      9.19831985	     -0.08774457	      0.64665084	     -1.16191426	    106.57665431	    -40.87585056	     -2.30780007	     75.59938031	     -9.18847971	      9.65646477	      1.31945810	      6.86256734	      6.20312260	      0.00000000	     96.76949643	    -28.57845021	    -13.61055181	     67.43136868	     -7.77191179	     -9.70781335	      1.17689940	      2.46724492	     16.02203459	      0.00000000
      6.14500000	      6.74022232	    -37.58394149	      9.06668396	     -0.08710167	      0.64699206	     -1.16208930	    106.26332563	    -41.06475879	     -2.59318456	     75.53642499	     -9.18583215	      9.65922175	      1.31835932	      6.89128112	      6.27895983	      0.00000000	     96.76877284	    -28.46030050	    -13.37033110	     67.43950499	     -7.73271278	     -9.70815031	      1.17704141	      2.49493324	     15.99234028	      0.00000000
      6.15000000	      6.64287282	    -37.48588350	      9.14184002	     -0.08640843	      0.64733318	     -1.16223816	    106.17605117	    -40.99051202	     -2.46195854	     75.50327318	     -9.17584812	      9.65940455	      1.31778071	      6.89773806	      6.29509372	      0.00000000	     96.48170234	    -28.56650753	    -13.58738760	     67.41808839	     -7.72687859	     -9.70900840	      1.17666762	      2.55161008	     16.05298223	      0.00000000
      6.15500000	      6.27750715	    -37.73293139	      8.84438663	     -0.08650313	      0.64686498	     -1.16214389	    106.26285338	    -40.61884331	     -2.05455515	     75.58835694	     -8.64570824	      9.36733272	      1.31926570	      6.93346736	      6.20689113	      0.00000000	     96.84888814	    -29.00493595	    -12.79584107	     67.64881740	     -7.08101947	     -9.46497710	      1.18069460	      2.57740608	     15.90011213	      0.00000000
      6.16000000	      6.66902576	    -37.40056281	      8.88110772	     -0.08505737	      0.64811619	     -1.16256898	    105.59182156	    -41.18569334	     -2.96733915	     75.35776729	     -9.18540810	      9.66105399	      1.31524116	      6.96090323	      6.39699378	      0.00000000	     96.42897070	    -28.49305345	    -13.22760526	     67.43173129	     -7.63114469	     -9.71004478	      1.17690573	      2.63374220	     15.99820828	      0.00000000
      6.16500000	      6.30780956	    -37.60600879	      8.92928152	     -0.08509356	      0.64763662	     -1.16253513	    106.01210045	    -40.72634736	     -2.01584615	     75.49828338	     -8.62257614	      9.36928009	      1.31769362	      6.95968202	      6.33545683	      0.00000000	     96.49505728	    -28.97299512	    -12.93465888	     67.61260564	     -7.04606845	     -9.46619780	      1.18006258	      2.70516578	     15.96699299	      0.00000000
      6.17000000	      6.62570635	    -37.23657663	      8.97253523	     -0.08363598	      0.64894489	     -1.16293521	    105.31995199	    -41.21521322	     -2.88054576	     75.25700065	     -9.16059174	      9.66320872	      1.31348245	      6.99507393	      6.51359427	      0.00000000	     95.97841281	    -28.54741893	    -13.44088119	     67.37214137	     -7.57395309	     -9.71255167	      1.17586569	      2.71626473	     16.09322967	      0.00000000
      6.17500000	      6.48557132	    -37.16308006	      9.10798223	     -0.08288653	      0.64937379	     -1.16309053	    105.31067863	    -41.06506729	     -2.62702853	     75.21843730	     -9.14220265	      9.66231120	      1.31280939	      6.99947938	      6.50256051	      0.00000000	     95.63038250	    -28.71540347	    -13.78653261	     67.32830212	     -7.57095117	     -9.71453668	      1.17510055	      2.77933833	     16.21965611	      0.00000000
      6.18000000	      6.51750322	    -37.07489504	      9.04929639	     -0.08212996	      0.64986455	     -1.16328495	    105.02199778	    -41.18090761	     -2.79797079	     75.13732613	     -9.13943499	      9.66342936	      1.31139373	      7.04461303	      6.60658177	      0.00000000	     95.49061533	    -28.67382939	    -13.70722018	     67.30702105	     -7.51762369	     -9.71368950	      1.17472913	      2.82993547	     16.21829439	      0.00000000
